<?xml version="1.0" encoding="UTF-8" standalone="no"?>
<!-- Created with Inkscape (http://www.inkscape.org/) -->

<svg
   xmlns:dc="http://purl.org/dc/elements/1.1/"
   xmlns:cc="http://creativecommons.org/ns#"
   xmlns:rdf="http://www.w3.org/1999/02/22-rdf-syntax-ns#"
   xmlns:svg="http://www.w3.org/2000/svg"
   xmlns="http://www.w3.org/2000/svg"
   xmlns:sodipodi="http://sodipodi.sourceforge.net/DTD/sodipodi-0.dtd"
   xmlns:inkscape="http://www.inkscape.org/namespaces/inkscape"
   width="66.854027mm"
   height="22.745054mm"
   viewBox="0 0 66.854027 22.745053"
   version="1.1"
   id="svg1511"
   inkscape:version="0.92.4 5da689c313, 2019-01-14"
   sodipodi:docname="payoneer.svg">
  <defs
     id="defs1505" />
  <sodipodi:namedview
     id="base"
     pagecolor="#ffffff"
     bordercolor="#666666"
     borderopacity="1.0"
     inkscape:pageopacity="0.0"
     inkscape:pageshadow="2"
     inkscape:zoom="1.4"
     inkscape:cx="132.34088"
     inkscape:cy="23.905867"
     inkscape:document-units="mm"
     inkscape:current-layer="layer1"
     showgrid="false"
     fit-margin-top="0"
     fit-margin-left="0"
     fit-margin-right="0"
     fit-margin-bottom="0"
     inkscape:window-width="1024"
     inkscape:window-height="715"
     inkscape:window-x="0"
     inkscape:window-y="0"
     inkscape:window-maximized="1" />
  <metadata
     id="metadata1508">
    <rdf:RDF>
      <cc:Work
         rdf:about="">
        <dc:format>image/svg+xml</dc:format>
        <dc:type
           rdf:resource="http://purl.org/dc/dcmitype/StillImage" />
        <dc:title></dc:title>
      </cc:Work>
    </rdf:RDF>
  </metadata>
  <g
     inkscape:label="Capa 1"
     inkscape:groupmode="layer"
     id="layer1"
     transform="translate(-0.2167238,-0.13483472)">
    <g
       id="g843"
       style="stroke-width:0.2;stroke-miterlimit:4;stroke-dasharray:none"
       transform="matrix(1.5475227,0,0,1.5475227,-0.11866121,-0.07382508)">
      <path
         inkscape:connector-curvature="0"
         id="path2082"
         d="m 11.136943,14.261959 c 0,-0.126595 0.459838,-1.185256 0.871695,-2.00686 2.322479,-4.6330549 7.332593,-9.5761234 11.29262,-11.1415029 1.618583,-0.63981809 1.94075,-0.63917727 3.486785,0.00693 0.284329,0.118826 0.516961,0.231081 0.516961,0.2494558 -2e-6,0.018375 -0.649946,0.2218454 -1.444318,0.452157 -2.496516,0.7238122 -4.335153,1.5011958 -5.448243,2.3035421 -0.994937,0.7171785 -2.379167,1.909123 -3.589409,3.0907982 -2.131569,2.0812561 -2.947806,3.0718258 -4.65752,5.6522748 -0.533424,0.80509 -0.983071,1.4638 -0.999216,1.4638 -0.01614,0 -0.02935,-0.03177 -0.02935,-0.0706 z"
         style="fill:#333333;fill-opacity:1;stroke:#333333;stroke-width:1;stroke-miterlimit:4;stroke-dasharray:none;stroke-opacity:1" />
      <path
         inkscape:connector-curvature="0"
         id="path2084"
         d="M 12.918951,6.9377726 C 12.863813,6.8311474 12.63418,5.7740584 12.408655,4.5886862 11.988138,2.3784256 11.891149,1.7708917 11.958807,1.7708917 c 0.06339,0 0.790673,1.2068847 0.966044,1.6031011 0.08934,0.201839 0.204689,0.5878486 0.256339,0.8577996 0.159193,0.8320225 0.09586,2.641995 -0.09927,2.837127 -0.03908,0.039078 -0.100504,-0.010353 -0.162969,-0.1311468 z"
         style="fill:#333333;fill-opacity:1;stroke:#333333;stroke-width:1;stroke-miterlimit:4;stroke-dasharray:none;stroke-opacity:1" />
      <path
         inkscape:connector-curvature="0"
         id="path2086"
         d="M 0.79617332,12.049965 C 0.66677885,11.920571 0.69721493,11.227512 0.87841323,10.177273 1.0909504,8.9453931 1.8171295,5.2553208 1.8543402,5.2181101 1.8700088,5.2024414 2.4100012,5.168075 3.0543211,5.1417423 4.0316687,5.101799 4.2866415,5.1115483 4.5928676,5.2005706 5.3310988,5.4151802 5.8842081,6.135924 5.8825103,6.8810735 5.8813461,7.3944768 5.7010665,7.8062534 5.280743,8.2556135 4.6945782,8.8822709 4.0178968,9.1644363 2.9056205,9.2460015 2.4559786,9.2789744 2.1486355,9.3335754 2.0762486,9.3933432 1.8845953,9.5515863 1.7380439,9.9814075 1.5822417,10.842217 1.4265971,11.702155 1.2579702,12.077435 1.0110338,12.113442 0.9383683,12.124042 0.84168113,12.095472 0.79617332,12.049962 Z M 2.9307467,8.7267319 C 3.7898646,8.5718041 4.303768,8.3325215 4.6828038,7.9109424 5.1196504,7.4250639 5.2186977,6.9652001 4.9933897,6.4689352 4.7799852,5.9988899 4.091628,5.6075122 3.4195358,5.5740929 2.7636581,5.5414799 2.6399826,5.6045047 2.5194903,6.0327542 2.4464087,6.2924983 2.1165971,8.4939613 2.1165971,8.72203 c 0,0.1598112 -0.044551,0.159554 0.8141496,0.0047 z"
         style="fill:#333333;fill-opacity:1;stroke:#333333;stroke-width:1;stroke-miterlimit:4;stroke-dasharray:none;stroke-opacity:1" />
      <path
         inkscape:connector-curvature="0"
         id="path2088"
         d="M 6.6496644,12.062459 C 5.8932373,11.833943 5.5518555,11.116389 5.7182964,10.104808 5.9303864,8.8157864 6.7998445,7.8273684 8.091571,7.4068206 8.5485646,7.2580372 8.7874762,7.2261795 9.6502568,7.1989772 10.82707,7.1618739 10.73326,7.0847936 10.566109,7.9514993 c -0.0567,0.2939965 -0.191066,1.2368456 -0.298592,2.0952197 -0.22879,1.826412 -0.2986034,2.036339 -0.6878687,2.068422 -0.2191904,0.01807 -0.2845113,-0.01196 -0.4724662,-0.217157 -0.2532968,-0.276536 -0.3757967,-0.290133 -0.8576167,-0.09519 -0.70138,0.283774 -1.2339717,0.370214 -1.599901,0.259667 z M 8.1094746,11.497087 C 8.6099853,11.264053 8.9792833,10.723042 9.358019,9.6680069 9.6174599,8.945288 9.6999601,8.3268634 9.576387,8.0311114 9.5221765,7.9013668 9.410757,7.75932 9.3287881,7.7154518 9.1176993,7.6024803 8.6140093,7.667259 8.2285649,7.8569494 7.7560508,8.0894898 7.0984546,8.757618 6.8771984,9.2299593 6.7146963,9.5768709 6.6937987,9.6987499 6.6954233,10.290108 c 0.00225,0.823237 0.1323287,1.157321 0.4992946,1.282463 0.3473334,0.118446 0.5307381,0.103312 0.9147567,-0.07548 z"
         style="fill:#333333;fill-opacity:1;stroke:#333333;stroke-width:1;stroke-miterlimit:4;stroke-dasharray:none;stroke-opacity:1" />
      <path
         inkscape:connector-curvature="0"
         id="path2092"
         d="m 18.642704,12.008305 c -0.625855,-0.22426 -1.026731,-0.625003 -1.199514,-1.199117 -0.268126,-0.890917 0.107623,-2.0910831 0.8848,-2.8261051 1.339418,-1.266766 3.417439,-0.9142143 3.876836,0.6577338 0.09507,0.3253089 0.09957,0.4468248 0.03142,0.8474823 -0.178092,1.04691 -0.969745,2.131147 -1.778276,2.435503 -0.560671,0.211054 -1.358448,0.248192 -1.815264,0.0845 z m 1.380951,-0.472506 c 1.318288,-0.603255 1.732606,-3.1654669 0.603903,-3.7346389 -0.547812,-0.2762453 -1.112568,-0.135315 -1.562043,0.3897961 -0.877701,1.0253953 -1.033465,2.7542928 -0.29549,3.2797778 0.367402,0.261613 0.777592,0.282903 1.25363,0.06507 z"
         style="fill:#333333;fill-opacity:1;stroke:#333333;stroke-width:1;stroke-miterlimit:4;stroke-dasharray:none;stroke-opacity:1" />
      <path
         inkscape:connector-curvature="0"
         id="path2094"
         d="m 23.497319,12.026348 c -0.06625,-0.07983 -0.06752,-0.182265 -0.006,-0.484426 0.04293,-0.210754 0.197276,-1.033824 0.34299,-1.8290441 0.393514,-2.1475499 0.582776,-2.6505813 0.92779,-2.4659357 0.0799,0.042763 0.139192,0.1408062 0.139192,0.2301756 0,0.2100379 0.244277,0.5077902 0.416589,0.5077902 0.152773,0 0.719307,-0.3082843 0.719307,-0.3914169 0,-0.028433 0.127789,-0.1240708 0.283975,-0.2125274 0.384222,-0.2176079 1.168693,-0.2313186 1.520235,-0.026571 0.348183,0.2027938 0.425974,0.4231354 0.456173,1.2921154 0.04558,1.3116245 -0.298109,2.8591359 -0.73973,3.3307379 -0.165878,0.177138 -0.502383,0.202985 -0.563663,0.04329 -0.02259,-0.05888 0.01548,-0.457274 0.08463,-0.885331 0.174085,-1.07781 0.178157,-2.7482547 0.0075,-3.0909304 -0.234685,-0.4713353 -0.59926,-0.4685183 -1.218752,0.00942 -0.425993,0.3286506 -0.838285,0.8463949 -1.029777,1.2931571 -0.07691,0.1794515 -0.18695,0.6154348 -0.244518,0.9688523 -0.178199,1.093972 -0.290973,1.564859 -0.404918,1.690768 -0.136133,0.150427 -0.572331,0.162971 -0.691089,0.01988 z"
         style="fill:#333333;fill-opacity:1;stroke:#333333;stroke-width:1;stroke-miterlimit:4;stroke-dasharray:none;stroke-opacity:1" />
      <path
         inkscape:connector-curvature="0"
         id="path2096"
         d="m 30.572722,12.033811 c -0.695256,-0.199128 -1.045676,-0.525279 -1.232958,-1.14757 -0.283268,-0.9412293 0.121824,-2.2036038 0.951574,-2.9653553 0.426915,-0.3919313 0.860009,-0.6010635 1.425358,-0.688281 1.323869,-0.2042345 2.29285,0.6628442 1.806374,1.6164118 -0.302499,0.5929482 -0.979054,0.949529 -2.107052,1.1105306 -1.151787,0.1643969 -1.436574,0.2889779 -1.436574,0.6284319 0,0.26431 0.360069,0.705728 0.720458,0.883227 0.280207,0.138009 0.428368,0.157627 1.334177,0.176657 0.56043,0.01177 1.018966,0.04875 1.018966,0.08216 0,0.03342 -0.127788,0.127922 -0.283974,0.210013 -0.240967,0.126653 -0.405403,0.151752 -1.085782,0.16573 -0.513278,0.01054 -0.912915,-0.01535 -1.110567,-0.07196 z m 1.116065,-2.6391052 c 0.676183,-0.139555 0.97145,-0.2677022 1.12634,-0.4888402 0.215953,-0.3083141 0.05735,-0.9049559 -0.288039,-1.0835631 -0.61835,-0.3197614 -1.842709,0.162529 -2.171488,0.8553756 -0.12927,0.2724174 -0.144471,0.7517173 -0.02537,0.7997778 0.180912,0.072999 0.781003,0.036447 1.358551,-0.08275 z"
         style="fill:#333333;fill-opacity:1;stroke:#333333;stroke-width:1;stroke-miterlimit:4;stroke-dasharray:none;stroke-opacity:1" />
      <path
         inkscape:connector-curvature="0"
         id="path2098"
         d="M 35.707612,11.973331 C 34.95927,11.712732 34.623268,11.26982 34.545973,10.442086 34.44419,9.3521182 35.194019,7.9893069 36.165641,7.4983487 c 0.937982,-0.473961 2.012971,-0.3679721 2.557441,0.2521522 0.209613,0.238738 0.222589,0.2809462 0.196641,0.6396643 -0.06465,0.8938136 -0.819737,1.398175 -2.392175,1.597864 -0.673296,0.085504 -1.178345,0.2610598 -1.244116,0.4324548 -0.07043,0.183528 0.03912,0.43808 0.319368,0.742114 0.376471,0.408421 0.706017,0.497266 1.84448,0.497266 0.976754,0 1.074761,0.05066 0.580019,0.299806 -0.210486,0.106001 -0.425257,0.136639 -1.065437,0.15199 -0.700725,0.0168 -0.858848,-6.35e-4 -1.25425,-0.138329 z M 36.96736,9.3947058 c 0.928314,-0.1915911 1.230622,-0.4009792 1.230622,-0.8523676 0,-0.8920223 -1.049981,-1.1034231 -2.053066,-0.4133593 -0.483995,0.3329593 -0.785479,1.0665155 -0.539449,1.3125481 0.115954,0.1159524 0.664599,0.09709 1.361893,-0.046821 z"
         style="fill:#333333;fill-opacity:1;stroke:#333333;stroke-width:1;stroke-miterlimit:4;stroke-dasharray:none;stroke-opacity:1" />
      <path
         inkscape:connector-curvature="0"
         id="path2100"
         d="m 39.601147,11.819287 c 0,-0.241045 0.52297,-3.5264017 0.708747,-4.4524396 0.02827,-0.1409131 0.07534,-0.1837478 0.201917,-0.1837478 0.229481,0 0.518485,0.1615895 0.651163,0.3640804 0.06143,0.093752 0.15321,0.1704586 0.203957,0.1704586 0.05075,0 0.348572,-0.1229834 0.661834,-0.2732961 0.620805,-0.297883 0.805037,-0.301649 0.87625,-0.017912 0.05867,0.2337504 -0.116634,0.4916607 -0.33418,0.4916607 -0.25359,0 -0.638124,0.1821145 -0.888928,0.4209949 -0.470752,0.4483674 -0.714074,0.9753214 -1.019739,2.2084139 -0.305522,1.232523 -0.497379,1.580086 -0.872215,1.580086 -0.179916,0 -0.188806,-0.01452 -0.188806,-0.308299 z"
         style="fill:#333333;fill-opacity:1;stroke:#333333;stroke-width:1;stroke-miterlimit:4;stroke-dasharray:none;stroke-opacity:1" />
    </g>
  </g>
</svg>
