<?xml version="1.0" encoding="UTF-8" standalone="no"?>
<!-- Created with Inkscape (http://www.inkscape.org/) -->

<svg
   xmlns:dc="http://purl.org/dc/elements/1.1/"
   xmlns:cc="http://creativecommons.org/ns#"
   xmlns:rdf="http://www.w3.org/1999/02/22-rdf-syntax-ns#"
   xmlns:svg="http://www.w3.org/2000/svg"
   xmlns="http://www.w3.org/2000/svg"
   xmlns:sodipodi="http://sodipodi.sourceforge.net/DTD/sodipodi-0.dtd"
   xmlns:inkscape="http://www.inkscape.org/namespaces/inkscape"
   width="47.51506mm"
   height="53.777985mm"
   viewBox="0 0 47.515061 53.777985"
   version="1.1"
   id="svg899"
   inkscape:version="0.92.4 5da689c313, 2019-01-14"
   sodipodi:docname="uphold.svg">
  <defs
     id="defs893" />
  <sodipodi:namedview
     id="base"
     pagecolor="#ffffff"
     bordercolor="#666666"
     borderopacity="1.0"
     inkscape:pageopacity="0.0"
     inkscape:pageshadow="2"
     inkscape:zoom="1.979899"
     inkscape:cx="38.549652"
     inkscape:cy="105.85625"
     inkscape:document-units="mm"
     inkscape:current-layer="layer1"
     showgrid="false"
     fit-margin-top="0"
     fit-margin-left="0"
     fit-margin-right="0"
     fit-margin-bottom="0"
     inkscape:window-width="1024"
     inkscape:window-height="715"
     inkscape:window-x="0"
     inkscape:window-y="0"
     inkscape:window-maximized="1" />
  <metadata
     id="metadata896">
    <rdf:RDF>
      <cc:Work
         rdf:about="">
        <dc:format>image/svg+xml</dc:format>
        <dc:type
           rdf:resource="http://purl.org/dc/dcmitype/StillImage" />
        <dc:title></dc:title>
      </cc:Work>
    </rdf:RDF>
  </metadata>
  <g
     inkscape:label="Capa 1"
     inkscape:groupmode="layer"
     id="layer1"
     transform="translate(0.54187361,0.44864701)">
    <path
       style="fill:#363636;fill-opacity:1;stroke:#363636;stroke-width:1.879;stroke-miterlimit:4;stroke-dasharray:none;stroke-opacity:1"
       d="m 21.957293,0.49154452 c -2.425784,-0.001 -3.356359,0.1642 -5.805783,0.79762998 -7.1724236,1.85481 -12.5277698,6.20675 -14.8432666,12.0621005 -0.85376225,2.15896 -0.99115562,3.17034 -0.8820806,6.49213 0.0895388,2.72684 0.16716858,3.26788 0.7128612,4.97495 2.9286149,9.16151 10.040924,16.41035 18.342219,18.69434 1.02976,0.28333 1.768481,0.36285 3.42543,0.36834 2.594579,0.009 4.153,-0.26807 6.385602,-1.1334 7.29248,-2.8265 13.853229,-10.33484 16.1731,-18.50902 0.593989,-2.09295 0.76178,-7.06624 0.299539,-8.87606 -0.634244,-2.48328 -1.949367,-5.04176 -3.559057,-6.9238905 -1.127594,-1.31844 -4.174839,-3.81859 -5.728759,-4.70013 -1.704762,-0.96711 -4.89081,-2.19687 -7.031553,-2.71416 -1.621053,-0.39169998 -2.200726,-0.44500998 -5.532892,-0.50874998 -0.756098,-0.0145 -1.395564,-0.0237 -1.95536,-0.0241 z M 23.20835,2.8710045 c 3.605214,0 7.062359,0.71063 9.958467,2.04708 1.660566,0.76629 1.78191,1.08583 0.465451,1.22553 -3.165854,0.33595 -5.751216,1.14244 -8.66248,2.70212 -0.912471,0.48885 -1.727396,0.88513 -1.810842,0.88065 -0.08344,-0.004 -1.088575,-0.50481 -2.233697,-1.11181 -2.239101,-1.18688 -4.630874,-2.01129 -6.567659,-2.26372 -2.111244,-0.27518 -2.540543,-0.36344 -2.562604,-0.52697 -0.03656,-0.27103 2.631238,-1.47748 4.372474,-1.97733 2.452441,-0.70401 4.412256,-0.97555 7.04089,-0.97555 z m 10.965226,5.84403 c 1.684661,-0.005 2.06212,0.0493 3.182297,0.45398 2.31684,0.8369305 4.294142,3.0274605 5.19309,5.7531405 0.568884,1.72488 0.513645,6.58124 -0.100752,8.85878 -1.081569,4.00931 -3.288165,7.84215 -6.501138,11.29286 -1.020641,1.09616 -1.475646,1.12419 -1.294043,0.0798 0.61664,-3.54638 0.626007,-5.62464 0.03676,-8.27827 -1.12657,-5.07345 -3.660577,-9.60757 -7.685091,-13.75148 -0.704757,-0.72567 -1.2814,-1.42334 -1.2814,-1.55035 0,-0.25819 1.783001,-1.26491 3.319813,-1.8745605 1.86929,-0.74154 3.104606,-0.97845 5.130462,-0.98388 z m -22.47312,0.003 c 0.189859,7.7e-4 0.401167,0.003 0.639338,0.006 1.457863,0.0199 2.346752,0.11967 3.210113,0.36063 2.146034,0.59893 5.143687,2.0486005 5.143687,2.4874705 0,0.1122 -0.514763,0.73214 -1.143691,1.37768 -3.550527,3.64436 -5.792473,7.29772 -7.332452,11.94791 -0.652922,1.97159 -0.661037,2.03869 -0.669681,5.66642 -0.0048,2.01916 0.071,4.04835 0.168246,4.50925 0.14977,0.7098 0.129251,0.83805 -0.134013,0.83805 -1.033854,0 -4.9345587,-5.36669 -6.4569858,-8.88378 -1.3466534,-3.111 -1.6352938,-4.54331 -1.6200332,-8.03568 0.012771,-2.92278 0.04718,-3.19998 0.5656209,-4.54566 1.0287896,-2.67036 2.5728628,-4.31241 4.9149487,-5.2271005 1.1065594,-0.43216 1.3858944,-0.50708 2.7149024,-0.50166 z m 11.502449,4.6877805 c 0.366551,0 2.278294,1.89601 3.54077,3.51163 1.956896,2.50429 3.638093,5.75052 4.629222,8.93856 0.418783,1.34704 0.472359,1.89952 0.47926,4.9481 0.0071,3.11921 -0.03454,3.54742 -0.455725,4.70152 -0.94789,2.59736 -2.781871,4.59169 -5.0229,5.46195 -1.485364,0.57681 -4.103841,0.6789 -5.65757,0.22051 -2.706956,-0.79863 -4.662789,-2.7537 -5.702111,-5.70037 -0.387282,-1.09801 -0.442361,-1.65376 -0.449113,-4.52405 -0.0067,-2.85384 0.0518,-3.48315 0.458254,-4.92311 1.204888,-4.26864 3.628648,-8.34406 6.920881,-11.63713 0.548547,-0.54868 1.115129,-0.99761 1.259032,-0.99761 z m -6.799121,35.30103 c -0.46164,0.006 -0.731862,0.15194 -1.127157,0.46555 -0.77898,0.618 -0.843772,1.42011 -0.158716,1.96359 0.640865,0.50843 3.431088,1.07685 5.877361,1.19729 4.768528,0.23478 9.076692,-0.28185 10.274536,-1.23216 0.870088,-0.69028 0.508301,-1.92072 -0.669291,-2.27592 -0.373924,-0.11278 -1.124754,-0.0612 -2.746218,0.18872 -1.926302,0.29687 -2.671795,0.33157 -5.450616,0.25446 -1.868404,-0.0519 -3.7257,-0.1926 -4.426353,-0.33562 -0.739609,-0.15097 -1.214492,-0.23071 -1.573546,-0.22591 z"
       id="path1481"
       inkscape:connector-curvature="0" />
  </g>
</svg>
